PathFileType	4	(X/Y/Z)	TVC_41_BWA_04_walk_RCNL2025.trc
DataRate	CameraRate	NumFrames	NumMarkers	Units	OrigDataRate	OrigDataStartFrame	OrigNumFrames
100	100	10	27	mm	100	277	553
Frame#	Time	R_Shoulder			L_Shoulder			C7			J_Notch			R_Elbow			L_Elbow			R_Wrist			L_Wrist			R_Asis			L_Asis			R_Psis			L_Psis			Sacral			Thoracic			Sternum			R_Thigh_Lateral			R_Knee_Lateral			R_Shank_Lateral			R_Ankle_Lateral			R_Heel			R_Toe			L_Thigh_Lateral			L_Knee_Lateral			L_Shank_Lateral			L_Ankle_Lateral			L_Heel			L_Toe		
		X1	Y1	Z1	X2	Y2	Z2	X3	Y3	Z3	X4	Y4	Z4	X5	Y5	Z5	X6	Y6	Z6	X7	Y7	Z7	X8	Y8	Z8	X9	Y9	Z9	X10	Y10	Z10	X11	Y11	Z11	X12	Y12	Z12	X13	Y13	Z13	X14	Y14	Z14	X15	Y15	Z15	X16	Y16	Z16	X17	Y17	Z17	X18	Y18	Z18	X19	Y19	Z19	X20	Y20	Z20	X21	Y21	Z21	X22	Y22	Z22	X23	Y23	Z23	X24	Y24	Z24	X25	Y25	Z25	X26	Y26	Z26	X27	Y27	Z27
277	2.76000000	-441.772552	1257.218872	291.753510	-350.091705	1276.536377	-33.002235	-437.307190	1334.410767	121.168564	-332.104889	1215.177246	151.585693	-569.101624	986.159729	279.893799	-391.686157	990.966980	-118.603401	-393.262741	918.414276	311.549316	-286.912720	811.297577	-129.170639	-415.404114	900.333008	255.007919	-357.193420	855.864502	23.474205	-559.891479	895.788574	144.539032	-543.651550	878.278259	59.771671	-551.771515	887.033417	102.155352	-496.321686	1038.414673	86.401558	-314.613312	1032.775879	138.445236	-439.081757	691.609375	360.624146	-416.488403	452.595978	312.773438	-474.867584	332.671753	382.100159	-480.086700	118.332718	334.901947	-522.849121	98.069176	280.866547	-380.644379	60.026546	359.332977	-432.432922	585.308350	-60.393894	-421.488861	401.163727	44.461178	-451.437988	261.875854	-7.646399	-509.419312	66.198570	75.089111	-549.924072	47.100319	109.271088	-381.424957	37.156345	104.502464
278	2.77000000	-440.792664	1257.325928	291.139160	-349.934296	1276.076904	-33.971199	-436.716736	1334.277344	120.382393	-331.479492	1215.029053	150.731857	-568.200378	986.290100	280.011169	-392.317657	990.441711	-118.935287	-392.521362	918.631500	311.333160	-288.797318	810.119446	-130.103874	-414.307556	900.376282	254.893555	-356.657898	855.732300	23.218950	-559.122070	895.424194	144.880905	-543.055237	877.910400	60.064125	-551.088654	886.667297	102.472515	-495.882385	1038.195435	86.188087	-313.986908	1032.623901	137.848419	-437.078583	692.091919	361.204956	-411.804535	453.340851	313.964661	-468.358307	332.935791	383.949249	-471.056885	118.387985	337.480865	-514.103271	97.622398	283.747467	-370.759552	61.205799	361.714661	-431.678131	585.055298	-60.215141	-421.023560	401.013641	44.657013	-451.215118	261.762390	-7.430074	-510.275726	66.463226	75.429703	-549.891418	47.001328	109.519615	-381.457916	37.161217	104.577049
279	2.78000000	-439.816376	1257.450684	290.559357	-349.777527	1275.603638	-34.901020	-436.124817	1334.146729	119.628616	-330.856201	1214.879150	149.917343	-567.325562	986.448975	280.179230	-392.961304	989.900635	-119.202805	-391.823563	918.831787	311.163162	-290.729996	808.911621	-130.956173	-413.220367	900.405518	254.830917	-356.126526	855.606567	23.011787	-558.350952	895.057495	145.273026	-542.461426	877.542664	60.407619	-550.406189	886.300079	102.840322	-495.508942	1037.985474	86.006866	-313.366272	1032.470215	137.307617	-435.018768	692.547241	361.827026	-407.024445	454.102600	315.149841	-461.737061	333.223389	385.754730	-461.897278	118.499710	339.978119	-505.202820	97.259277	286.503113	-360.763031	62.449745	364.030273	-430.907745	584.808655	-60.005348	-420.554230	400.863525	44.887447	-450.980896	261.649048	-7.184417	-511.062317	66.707108	75.763367	-549.865479	46.909290	109.776955	-381.491516	37.166641	104.654739
280	2.79000000	-438.840759	1257.591064	290.015991	-349.621674	1275.118652	-35.789864	-435.530365	1334.018555	118.910179	-330.232727	1214.728027	149.143188	-566.472900	986.634033	280.398529	-393.614075	989.345825	-119.406036	-391.158920	919.015961	311.042557	-292.700378	807.680420	-131.726254	-412.135529	900.420471	254.819748	-355.595825	855.488098	22.850920	-557.572876	894.687378	145.716339	-541.866516	877.174255	60.803123	-549.719696	885.930817	103.259731	-495.193542	1037.784058	85.863754	-312.747620	1032.315674	136.821747	-432.899872	692.971558	362.486664	-402.154297	454.876892	316.320557	-455.019836	333.533966	387.505463	-452.634033	118.667580	342.378418	-496.167999	96.979851	289.117859	-350.684784	63.751694	366.262329	-430.122498	584.570740	-59.768501	-420.082031	400.714111	45.149075	-450.736786	261.536560	-6.912901	-511.757904	66.923027	76.084869	-549.847107	46.825565	110.041679	-381.525085	37.172455	104.733116
281	2.80000000	-437.862610	1257.744995	289.511108	-349.467041	1274.623657	-36.635941	-434.932281	1333.892334	118.230057	-329.606750	1214.576172	148.410324	-565.637451	986.842468	280.669922	-394.273041	988.779114	-119.544975	-390.516357	919.185272	310.974701	-294.698120	806.431885	-132.412914	-411.045837	900.420715	254.859695	-355.062317	855.377197	22.734560	-556.782532	894.312683	146.211853	-541.266846	876.804504	61.251568	-549.024689	885.558594	103.731710	-494.927643	1037.590088	85.765053	-312.126984	1032.161011	136.389633	-430.721069	693.361206	363.180115	-397.201660	455.658875	317.468475	-448.223724	333.866028	389.190979	-443.294373	118.889961	344.667358	-487.020172	96.782204	291.578308	-340.555206	65.103539	368.393555	-429.322266	584.343689	-59.508400	-419.607971	400.566162	45.438515	-450.484009	261.425629	-6.619048	-512.343262	67.104362	76.389771	-549.836914	46.751163	110.312675	-381.558136	37.178516	104.809982
282	2.81000000	-436.878510	1257.910156	289.046661	-349.313934	1274.120117	-37.437500	-434.329376	1333.767090	117.591225	-328.975830	1214.424194	147.719681	-564.813782	987.071533	280.994446	-394.935455	988.202026	-119.619560	-389.884216	919.341461	310.963028	-296.713150	805.171844	-133.015064	-409.944183	900.405640	254.950394	-354.522400	855.274170	22.660955	-555.974670	893.932190	146.760574	-540.658569	876.432617	61.753841	-548.316620	885.182404	104.257208	-494.702087	1037.402466	85.717316	-311.500305	1032.006958	136.010040	-428.482941	693.712524	363.903473	-392.175598	456.443176	318.585266	-441.366638	334.217255	390.801605	-433.906372	119.163887	346.831543	-477.781921	96.662514	293.873352	-330.404999	66.495781	370.407104	-428.506104	584.129028	-59.228584	-419.132660	400.420380	45.752445	-450.223755	261.316956	-6.306352	-512.802063	67.245308	76.674522	-549.834839	46.686760	110.589050	-381.590118	37.184692	104.883446
283	2.82000000	-435.884705	1258.083740	288.624756	-349.162750	1273.609497	-38.192844	-433.720337	1333.642090	116.996666	-328.337311	1214.271973	147.072144	-563.995850	987.318115	281.373352	-395.598663	987.616150	-119.629608	-389.250534	919.486420	311.010757	-298.735519	803.905670	-133.531696	-408.823486	900.374512	255.091400	-353.972473	855.178955	22.628401	-555.143677	893.544861	147.363525	-540.037781	876.057922	62.310783	-547.590729	884.801392	104.837154	-494.507690	1037.219727	85.727196	-310.863403	1031.853760	135.681641	-426.187347	694.021912	364.652710	-387.086426	457.223999	319.662811	-434.467102	334.584259	392.328400	-424.498657	119.485062	348.858551	-468.477112	96.615250	295.994110	-320.265015	67.917625	372.286652	-427.672211	583.927856	-58.932243	-418.656433	400.277374	46.087677	-449.956879	261.211182	-5.978222	-513.121277	67.341110	76.936546	-549.840698	46.632671	110.870033	-381.620575	37.190880	104.951927
284	2.83000000	-434.877411	1258.263428	288.247406	-349.013794	1273.093018	-38.900299	-433.103699	1333.516235	116.449341	-327.688568	1214.119873	146.468552	-563.177185	987.578857	281.807983	-396.260071	987.022583	-119.574867	-388.603119	919.622162	311.120804	-300.755554	802.638397	-133.961941	-407.676697	900.326477	255.282196	-353.408844	855.091370	22.635256	-554.284058	893.149475	148.021713	-539.400391	875.679749	62.923153	-546.842224	884.414612	105.472433	-494.335175	1037.040649	85.801247	-310.212006	1031.701782	135.403061	-423.836914	694.286194	365.423737	-381.945679	457.995117	320.693115	-427.544220	334.962830	393.763397	-415.100342	119.847946	350.737213	-459.130676	96.633339	297.933777	-310.165955	69.357071	374.016571	-426.817932	583.740906	-58.622162	-418.179169	400.137695	46.441189	-449.683990	261.108856	-5.637918	-513.291809	67.388245	77.174232	-549.853882	46.588882	111.154877	-381.649170	37.197002	105.014198
285	2.84000000	-433.852539	1258.446045	287.916656	-348.867218	1272.571655	-39.558250	-432.477997	1333.388306	115.952164	-327.026764	1213.967773	145.909729	-562.350769	987.850464	282.299927	-396.917145	986.422363	-119.455002	-387.929810	919.750671	311.295547	-302.763794	801.374634	-134.305042	-406.496857	900.260498	255.522202	-352.827759	855.010986	22.679955	-553.390259	892.744934	148.736084	-538.742249	875.297424	63.591648	-546.066254	884.021179	106.163866	-494.175537	1036.863770	85.945740	-309.541656	1031.551270	135.172897	-421.434906	694.502075	366.212433	-376.765869	458.749939	321.668671	-420.617279	335.347839	395.099365	-405.740753	120.245804	352.457458	-449.768829	96.708344	299.687592	-300.138367	70.801056	375.582123	-425.940033	583.568359	-58.300667	-417.700409	400.001709	46.810192	-449.405304	261.010468	-5.288491	-513.308960	67.384583	77.386963	-549.873413	46.555073	111.442772	-381.675659	37.203011	105.069397
286	2.85000000	-432.805878	1258.629028	287.634491	-348.723206	1272.046387	-40.165108	-431.841522	1333.256836	115.508011	-326.348999	1213.815552	145.396423	-561.509216	988.129211	282.850769	-397.567352	985.816345	-119.269577	-387.218628	919.873840	311.536728	-304.751053	800.118652	-134.560406	-405.277130	900.175415	255.810806	-352.225433	854.937134	22.761030	-552.456665	892.330139	149.507538	-538.059082	874.910339	64.316872	-545.257874	883.620239	106.912205	-494.020203	1036.687744	86.166527	-308.847961	1031.402100	134.989700	-418.984863	694.666687	367.014709	-371.560364	459.481506	322.582245	-413.705750	335.733307	396.330048	-396.449280	120.670815	354.010498	-440.418915	96.830727	301.252502	-290.212341	72.235573	376.969604	-425.034698	583.410095	-57.969570	-417.219147	399.869659	47.192135	-449.120758	260.916351	-4.932743	-513.172241	67.329453	77.575012	-549.898376	46.530663	111.732750	-381.699829	37.208878	105.117027
